inDegrees=no
num_controls=7
num_derivatives=13
num_iterations=102
num_multipliers=7
num_parameters=0
num_slacks=7
num_states=26
objective=0.545227
objective_accelerations=0.041222
objective_balance=0.003703
objective_effort=0.040479
objective_height=0.450360
objective_ligament=0.009462
solver_duration=1201.147933
status=Solve_Succeeded
success=true
DataType=double
version=3
OpenSimVersion=4.5
endheader
time	/jointset/ground_pelvis/pelvis_tilt/value	/jointset/ground_pelvis/pelvis_tx/value	/jointset/ground_pelvis/pelvis_ty/value	/jointset/hip_r/hip_flexion_r/value	/jointset/hip_r/hip_adduction_r/value	/jointset/hip_r/hip_rotation_r/value	/jointset/back/lumbar_extension/value	/jointset/patellofemoral_r/patellar_flexion_r/value	/jointset/knee_r/knee_flexion_r/value	/jointset/knee_r/knee_adduction_r/value	/jointset/knee_r/knee_rotation_r/value	/jointset/ankle_r/ankle_angle_r/value	/jointset/subtalar_r/subtalar_angle_r/value	/jointset/ground_pelvis/pelvis_tilt/speed	/jointset/ground_pelvis/pelvis_tx/speed	/jointset/ground_pelvis/pelvis_ty/speed	/jointset/hip_r/hip_flexion_r/speed	/jointset/hip_r/hip_adduction_r/speed	/jointset/hip_r/hip_rotation_r/speed	/jointset/back/lumbar_extension/speed	/jointset/patellofemoral_r/patellar_flexion_r/speed	/jointset/knee_r/knee_flexion_r/speed	/jointset/knee_r/knee_adduction_r/speed	/jointset/knee_r/knee_rotation_r/speed	/jointset/ankle_r/ankle_angle_r/speed	/jointset/subtalar_r/subtalar_angle_r/speed	/forceset/tau_hip_flexion_r	/forceset/tau_hip_adduction_r	/forceset/tau_hip_rotation_r	/forceset/tau_knee_flexion_r	/forceset/tau_ankle_angle_r	/forceset/tau_subtalar_angle_r	/forceset/tau_lumbar_extension	lambda_cid13_p0	lambda_cid14_p0	lambda_cid14_p1	lambda_cid14_p2	lambda_cid14_p3	lambda_cid14_p4	lambda_cid14_p5	/jointset/ground_pelvis/pelvis_tilt/accel	/jointset/ground_pelvis/pelvis_tx/accel	/jointset/ground_pelvis/pelvis_ty/accel	/jointset/hip_r/hip_flexion_r/accel	/jointset/hip_r/hip_adduction_r/accel	/jointset/hip_r/hip_rotation_r/accel	/jointset/back/lumbar_extension/accel	/jointset/patellofemoral_r/patellar_flexion_r/accel	/jointset/knee_r/knee_flexion_r/accel	/jointset/knee_r/knee_adduction_r/accel	/jointset/knee_r/knee_rotation_r/accel	/jointset/ankle_r/ankle_angle_r/accel	/jointset/subtalar_r/subtalar_angle_r/accel	gamma_cid13_p0	gamma_cid14_p0	gamma_cid14_p1	gamma_cid14_p2	gamma_cid14_p3	gamma_cid14_p4	gamma_cid14_p5
1.5	-0.2238531005814143	0.008908463258462214	0.8497719970518387	0.8652859590004627	-0.2255273488104642	-0.1421829214428994	-0.304688220644673	0.6531498189490693	0.6531498189490802	0.03707156938226442	0.1745283630738057	0.1793386398358595	0.03902107813075195	0.5460479769110566	0.2313192412864884	0.3982837040308037	-1.962700253813352	0.01221503382728891	-0.2904428968793638	0.6953771019830272	-1.743924659722845	-1.743924659722824	0.2764720019119075	-1.923437206487275e-05	-0.4084658246604138	-0.09054080899924906	-0.1419003130244436	-0.01645428411169389	0.007692554419571602	-0.293681207803848	0.101948748017018	-0.01232128135145111	0.1747576809961115	-33.92430119713691	-9.021876304608494	-2.734049169183363	-3.897845761629056	-1.704307997052303	-659.1258031018472	55.19214219948093	0.2647887489114467	0.5171547381512438	-0.4458688321325747	-1.153899221734141	0.005306515371941769	-0.5212834198675269	1.651134772660744	-1.11483793785884	-1.114837937858898	0.4430142923506146	0.007584754536581786	-0.3476644601504628	-0.04543223151025881	1.250998270134443e-07	1.869657734256589e-07	-4.001913774613512e-07	1.268104099889078e-06	-6.455560777392411e-08	2.546636683493032e-07	-4.736107877978219e-07
1.51	-0.2183799027329735	0.01124723661254352	0.8537316935729817	0.8456034292431076	-0.2254058600084564	-0.1451122217353751	-0.2976531768421636	0.6356571568017795	0.6356571568017836	0.03986070120850831	0.174528610047347	0.1752369110269106	0.03811233728663867	0.548511878875115	0.2364030844087879	0.3935697695982117	-1.973532113006666	0.01208035243314022	-0.2953867599940273	0.7115273232517006	-1.754356576827191	-1.754356576827197	0.2813480452794541	5.300512480144792e-05	-0.4118173200362593	-0.09119276851397728	-0.134050643142956	-0.01829358706740809	0.007070930196762408	-0.2910143209436121	0.1042693025011558	-0.01279957757327642	0.1679592477658721	-34.83594243239109	-8.073918401616245	-2.66854945745011	-4.030785276702968	-1.977777115629295	-654.9715893151929	55.44808941828671	0.2252532137363976	0.4991367155814398	-0.4969752623987779	-1.006766348352972	-0.02307295273917859	-0.4761555115561705	1.581315513904031	-0.9697175582955514	-0.9697175582995482	0.5089385137504998	0.004948667913520203	-0.3194896148076461	-0.07282063499226211	1.34596595840553e-07	1.910615159228763e-07	-4.929696140970692e-07	1.294908645224987e-06	-5.698011394556653e-08	2.683376409815083e-07	-5.357774215130904e-07
1.52	-0.2128844534061753	0.01363587592111027	0.8576416868470834	0.8258207934777749	-0.2252857615175765	-0.1480900042098552	-0.2904597608849807	0.6180677056911312	0.6180677056911283	0.04269840129938608	0.1745291604399882	0.1711035477565021	0.03719752828267047	0.5504982725825068	0.2412924321835765	0.3883430546225678	-1.982721455408897	0.01193697160175554	-0.3001393332803072	0.7270515329177082	-1.763282452394461	-1.763282452394494	0.286185654838753	4.144944774224026e-05	-0.4147927169523467	-0.09175444097023171	-0.126200973261468	-0.02013289002312209	0.006449305973954714	-0.2883474340833763	0.1065898569852937	-0.01327787379510144	0.1611608145356331	-35.71604852494676	-7.133664445721476	-2.601573213839745	-4.16718843874093	-2.251165472816998	-650.941717210346	55.78233413560626	0.1692870975781412	0.4782556686490485	-0.5484249407429569	-0.8253958635173156	0.003566627924743773	-0.4830254541907918	1.525932452127545	-0.8136296304438306	-0.8136296304438352	0.4353275307010431	-0.009174280248529985	-0.2724447681988499	-0.02737481981549638	1.432504300449294e-07	1.932620475692019e-07	-5.876214642953354e-07	1.310548598144114e-06	-4.812684489568243e-08	2.810986445428231e-07	-5.977767203494564e-07
1.53	-0.2073715472616457	0.01607237916980714	0.8614969078732059	0.8059545207092614	-0.2251671657399844	-0.1511147500116331	-0.2831143391036413	0.6003965720695773	0.6003965720695741	0.04558408606622568	0.174529498606484	0.1669423196434108	0.03627753713076056	0.5520010062506054	0.2459695982276976	0.3826212774365139	-1.990249852030664	0.01178349283984105	-0.3047959513959481	0.7419164987701955	-1.770684018511832	-1.770684018511823	0.290925157399949	2.419077855262542e-05	-0.4173864749202583	-0.09222394194831017	-0.118321626024903	-0.02212230005946565	0.00584894163137838	-0.2857556734810709	0.1089659410756841	-0.01388964782129804	0.1543285819722378	-36.56001777174613	-6.193185946977558	-2.59663699020659	-4.289005310105513	-2.483192315444976	-647.0711467575431	56.05164991486495	0.1284931708346924	0.4566476831558958	-0.5959752419571934	-0.674049384201429	-0.02449023959064596	-0.4546601409469859	1.449329964821821	-0.6644131241010396	-0.6644131240948291	0.4893032461158111	0.001950629828747522	-0.2428626191336738	-0.05372196076501946	1.510086462126526e-07	1.93448917686455e-07	-6.842640289038091e-07	1.314326171620411e-06	-3.791593967292641e-08	2.928896184663171e-07	-6.595982258769887e-07
1.54	-0.2018460684465528	0.0185544942011177	0.8652925269005836	0.7860214664099914	-0.2250500417722796	-0.1541855980247066	-0.2756237574011745	0.5826592241825056	0.582659224182503	0.0485163741841342	0.1745296546443069	0.1627571496890312	0.03535345412427766	0.5530128066950618	0.2504147887063132	0.3764226548736356	-1.99607776156023	0.01164260962428243	-0.3093597755394393	0.7560835171431823	-1.776525305497899	-1.776525305497849	0.2955063250526218	5.023712679951948e-06	-0.4195810852100247	-0.09257281188482855	-0.1104422787883382	-0.024111710095809	0.005248577288810943	-0.2831639128787658	0.1113420251660743	-0.01450142184749462	0.1474963494088423	-37.36325142908871	-5.261177199769794	-2.590153249360682	-4.414531332464319	-2.713449932030498	-643.3378117486631	56.40394937567993	0.0711004528497014	0.4318605555479387	-0.643794016107832	-0.48529844507701	0.006085737195916715	-0.4644666597608505	1.386342956227512	-0.5015738041833387	-0.5015738041833062	0.403660548996382	-0.009555959585145636	-0.1926152325698432	-0.003248611503483679	1.595608177882635e-07	1.926263201856237e-07	-7.927370944741112e-07	1.3112439289096e-06	-2.589623339385089e-08	3.029581159599136e-07	-7.22053705450161e-07
1.55	-0.1963129575005727	0.02107984314938318	0.8690238432140356	0.7660386801527429	-0.2249343214738087	-0.1573018280551585	-0.267995108646156	0.5648712955360543	0.56487129553606	0.05149367248978137	0.1745298280448366	0.1585520143789175	0.03442641951356101	0.5535248504260654	0.254610085598183	0.3697676572090161	-2.000187469711601	0.01150194724032843	-0.3138614447992995	0.769516484974454	-1.780793092652564	-1.780793092652501	0.2999299632811246	2.296409997125436e-05	-0.4213782489664111	-0.09281563009831256	-0.1025206973921805	-0.02630517534129986	0.004663795856174297	-0.2807051460129334	0.1138390593948484	-0.01524194364311681	0.1406299536544681	-38.12115734802397	-4.310278968515817	-2.639664926148468	-4.527259776146513	-2.913485768925441	-639.8074269861218	56.71130478723394	0.02859513803507906	0.4066261622814998	-0.6872321261886174	-0.3299793283431992	-0.02398120130889555	-0.439045102835307	1.302311363676208	-0.3493163575567063	-0.3493163575547866	0.4581377809734746	0.006715080503378263	-0.1630881335018176	-0.03202916845821278	1.690277640729623e-07	1.906406404291734e-07	-9.14840954630867e-07	1.30025798493973e-06	-1.179247372379868e-08	3.110420210451499e-07	-7.85239633380266e-07
1.56	-0.1907772583563202	0.02364579744782238	0.8726864336539314	0.7460235623483459	-0.2248199755942007	-0.1604622803869565	-0.2602360226794049	0.5470487019807661	0.5470487019807808	0.05451449164195255	0.1745300300577651	0.1543309431939742	0.03349751057227206	0.5535304463494433	0.2585358587410569	0.3626774801624118	-2.002544070990013	0.0113677258516606	-0.3182042358086282	0.7821709594896934	-1.783458287265176	-1.7834582872651	0.3042104943574766	1.074619194699434e-05	-0.4227682601759487	-0.09294767799929056	-0.09459911599602297	-0.02849864058679013	0.004079014423545297	-0.2782463791471014	0.1163360936236226	-0.01598246543873843	0.1337635579000936	-38.82923391460657	-3.368607633748685	-2.687628212499489	-4.643849887102317	-3.110360488892802	-636.4273313211792	57.10520666601464	-0.03018910867545078	0.3779558057487598	-0.7308298925047794	-0.1346770704850979	0.007373936253150902	-0.4326910096545477	1.230644293021074	-0.1810552957728085	-0.1810552957728067	0.3750391185662097	-0.01558761864825886	-0.1111847232000964	0.01890545099772106	1.788395131353244e-07	1.884608096166518e-07	-1.042310725963336e-06	1.286711108938674e-06	2.520753293123328e-09	3.203252437277778e-07	-8.481360185426571e-07
1.57	-0.1852440583211889	0.02624960517516357	0.8762760201021784	0.7259936918191119	-0.2247069868862875	-0.1636656569641758	-0.2523544115979974	0.5292075178226149	0.5292075178226291	0.05757733031828943	0.1745302471514646	0.1500980014120469	0.03256778679419793	0.553022035864754	0.2621746785131793	0.3551739378380122	-2.003126096428396	0.0112297074859399	-0.3224390246171175	0.7940084822084584	-1.784499952992291	-1.78449995299225	0.3083322604109527	2.528868515158112e-05	-0.4237492195761358	-0.09297935540002575	-0.08663575696789602	-0.03087448899639996	0.003496260934318693	-0.2759451632445648	0.119003908031997	-0.01689164875385592	0.1268710006306131	-39.48308517097157	-2.394947021435266	-2.807670294755045	-4.74388753867208	-3.288467452241072	-633.2746734678095	57.42529925745393	-0.07427811020326269	0.3491989283210667	-0.7699296866283644	0.02564918998123877	-0.0243879820293975	-0.413796170181003	1.138890073812706	-0.02397250117460853	-0.02397250117990733	0.426886734162622	0.009115426815050518	-0.08089422273424747	-0.01159541875649475	1.890822656697656e-07	1.860382899840409e-07	-1.176487886265446e-06	1.269963067898634e-06	1.709581449363259e-08	3.31107613407145e-07	-9.106704752454057e-07
